<mxfile host="app.diagrams.net" modified="2024-07-01T17:45:33.299Z" agent="Mozilla/5.0 (Windows NT 10.0; Win64; x64) AppleWebKit/537.36 (KHTML, like Gecko) Chrome/126.0.0.0 Safari/537.36" etag="pTZnVs-czzBGVel0er_S" version="24.6.3" type="device">
  <diagram name="Page-1" id="zCJOOwEvWnlqeo-MKQPp">
    <mxGraphModel dx="1395" dy="643" grid="1" gridSize="10" guides="1" tooltips="1" connect="1" arrows="1" fold="1" page="1" pageScale="1" pageWidth="850" pageHeight="1100" math="0" shadow="0">
      <root>
        <mxCell id="0" />
        <mxCell id="1" parent="0" />
        <mxCell id="24lvV09j2VHUAjs1KWGv-15" style="edgeStyle=orthogonalEdgeStyle;rounded=0;orthogonalLoop=1;jettySize=auto;html=1;entryX=0.5;entryY=0;entryDx=0;entryDy=0;" edge="1" parent="1" source="24lvV09j2VHUAjs1KWGv-1" target="24lvV09j2VHUAjs1KWGv-2">
          <mxGeometry relative="1" as="geometry" />
        </mxCell>
        <mxCell id="24lvV09j2VHUAjs1KWGv-1" value="Start" style="rounded=1;whiteSpace=wrap;html=1;" vertex="1" parent="1">
          <mxGeometry x="40" y="90" width="120" height="60" as="geometry" />
        </mxCell>
        <mxCell id="24lvV09j2VHUAjs1KWGv-2" value="End" style="rounded=1;whiteSpace=wrap;html=1;" vertex="1" parent="1">
          <mxGeometry x="40" y="550" width="120" height="60" as="geometry" />
        </mxCell>
        <mxCell id="24lvV09j2VHUAjs1KWGv-7" value="5. store input in x, store another input in y, print" style="text;html=1;align=center;verticalAlign=middle;whiteSpace=wrap;rounded=0;" vertex="1" parent="1">
          <mxGeometry x="55" y="30" width="265" height="30" as="geometry" />
        </mxCell>
        <mxCell id="24lvV09j2VHUAjs1KWGv-17" value="print(x)" style="shape=document;whiteSpace=wrap;html=1;boundedLbl=1;" vertex="1" parent="1">
          <mxGeometry x="40" y="260" width="120" height="80" as="geometry" />
        </mxCell>
        <mxCell id="24lvV09j2VHUAjs1KWGv-19" value="print(y)" style="shape=document;whiteSpace=wrap;html=1;boundedLbl=1;" vertex="1" parent="1">
          <mxGeometry x="40" y="440" width="120" height="80" as="geometry" />
        </mxCell>
        <mxCell id="24lvV09j2VHUAjs1KWGv-24" value="x: int&amp;nbsp;&lt;br&gt;&quot;what is x?&quot;" style="shape=card;whiteSpace=wrap;html=1;" vertex="1" parent="1">
          <mxGeometry x="52.5" y="170" width="95" height="60" as="geometry" />
        </mxCell>
        <mxCell id="24lvV09j2VHUAjs1KWGv-25" value="y: int&amp;nbsp;&lt;br&gt;&quot;what is y?&quot;" style="shape=card;whiteSpace=wrap;html=1;" vertex="1" parent="1">
          <mxGeometry x="52.5" y="360" width="95" height="60" as="geometry" />
        </mxCell>
      </root>
    </mxGraphModel>
  </diagram>
</mxfile>
